<?xml version="1.0" encoding="utf-8"?>
<!-- Generator: Adobe Illustrator 22.1.0, SVG Export Plug-In . SVG Version: 6.00 Build 0)  -->
<svg version="1.1"
	 id="Logo" inkscape:export-filename="C:\Users\Franz\INSITU\Organisation\Logo\insitu_logo_400x400_white.png" inkscape:export-xdpi="90" inkscape:export-ydpi="90" inkscape:version="0.48.5 r10040" sodipodi:docname="insitu_logo.svg" xmlns:cc="http://creativecommons.org/ns#" xmlns:dc="http://purl.org/dc/elements/1.1/" xmlns:inkscape="http://www.inkscape.org/namespaces/inkscape" xmlns:rdf="http://www.w3.org/1999/02/22-rdf-syntax-ns#" xmlns:sodipodi="http://sodipodi.sourceforge.net/DTD/sodipodi-0.dtd" xmlns:svg="http://www.w3.org/2000/svg"
	 xmlns="http://www.w3.org/2000/svg" xmlns:xlink="http://www.w3.org/1999/xlink" x="0px" y="0px" viewBox="0 0 400 400"
	 style="enable-background:new 0 0 400 400;" xml:space="preserve">
<style type="text/css">
	.st0{fill:#005CA9;}
	.st1{fill:#8C8C8C;}
	.st2{fill:#4C4C4C;}
</style>
<sodipodi:namedview  bordercolor="#666666" borderopacity="1" fit-margin-bottom="82" fit-margin-left="80" fit-margin-right="80" fit-margin-top="83" gridtolerance="10" guidetolerance="10" id="namedview3769" inkscape:current-layer="svg3767" inkscape:cx="272.82573" inkscape:cy="160.10793" inkscape:pageopacity="1" inkscape:pageshadow="2" inkscape:window-height="1017" inkscape:window-maximized="1" inkscape:window-width="1920" inkscape:window-x="-8" inkscape:window-y="1192" inkscape:zoom="1.4142136" objecttolerance="10" pagecolor="#ffffff" showgrid="false">
	</sodipodi:namedview>
<g>
	<rect id="rect4297-9-3-1-48-1" x="203.5" y="136.3" class="st0" width="18.4" height="18.4"/>
	<rect id="rect4297-9-3-1-45-7" x="229.7" y="100.6" class="st0" width="15.7" height="15.7"/>
	<rect id="rect4297-9-3-1-5-4" x="248.9" y="95.1" class="st0" width="13.1" height="13.1"/>
	<rect id="rect4297-9-3-1-1-0" x="233.9" y="62" class="st0" width="13.1" height="13.1"/>
	<rect id="rect4297-9-3-1-71-9" x="189.2" y="108.8" class="st0" width="15.7" height="15.7"/>
	<rect id="rect4297-9-3-1-15-4" x="190.8" y="71.8" class="st0" width="13.1" height="13.1"/>
	<rect id="rect4297-9-3-1-27-8" x="146.6" y="90.6" class="st0" width="15.7" height="15.7"/>
	<rect id="rect4297-9-3-1-14-8" x="131.2" y="109.1" class="st0" width="18.4" height="18.4"/>
	<rect id="rect4297-9-3-1-22-2" x="210.9" y="116.2" class="st0" width="15.7" height="15.7"/>
	<rect id="rect4297-9-3-1-16-4" x="211.1" y="74.7" class="st0" width="13.1" height="13.1"/>
	<rect id="rect4297-9-3-1-85-5" x="256.3" y="38" class="st0" width="7.9" height="7.9"/>
	<rect id="rect4297-9-3-1-45-1-5" x="209.8" y="95.9" class="st0" width="13.1" height="13.1"/>
	<rect id="rect4297-9-3-1-15-2-1" x="168.1" y="75.9" class="st0" width="13.1" height="13.1"/>
	<rect id="rect4297-9-3-1-15-34-7" x="229.5" y="81.2" class="st0" width="13.1" height="13.1"/>
	<rect id="rect4297-9-3-1-15-1-1" x="248" y="78.5" class="st0" width="13.1" height="13.1"/>
	<rect id="rect4297-9-3-1-85-1-1" x="250.7" y="60.8" class="st0" width="10.5" height="10.5"/>
	<rect id="rect4297-9-3-1-85-3-5" x="241.1" y="49.8" class="st0" width="7.9" height="7.9"/>
	<rect id="rect4297-9-3-1-85-8-2" x="254.1" y="49.4" class="st0" width="7.9" height="7.9"/>
	<rect id="rect4297-9-3-1-85-7-7" x="218.3" y="61.6" class="st0" width="10.5" height="10.5"/>
	<rect id="rect4297-9-3-1-9-4-6" x="154.6" y="116.5" class="st0" width="18.4" height="18.4"/>
	<rect id="rect4297-9-3-1-2-8-1" x="176" y="154.6" class="st0" width="18.4" height="18.4"/>
	<rect id="rect4297-9-3-1-4" x="252.9" y="116.4" class="st0" width="15.7" height="15.7"/>
	<rect id="rect4297-9-3-1-9-2" x="255.6" y="140.8" class="st0" width="18.4" height="18.4"/>
	<rect id="rect4297-9-3-1-6-3" x="228.8" y="149.1" class="st0" width="19.7" height="19.7"/>
	<rect id="rect4297-9-3-1-8-2" x="232.9" y="125.3" class="st0" width="15.7" height="15.7"/>
	<rect id="rect4297-9-3-1-15-3-1-2" x="190.4" y="91.1" class="st0" width="13.1" height="13.1"/>
	<rect id="rect4297-9-3-1-9-4-1-1" x="178.2" y="127.8" class="st0" width="18.4" height="18.4"/>
	<rect id="rect4297-9-3-1-27-5-6" x="168.5" y="97.1" class="st0" width="15.7" height="15.7"/>
	<rect id="rect4297-9-3-1-85-2-8" x="247" y="41.7" class="st0" width="5.2" height="5.2"/>
	<rect id="rect4297-9-3-1-85-2-7-5" x="232.5" y="55.1" class="st0" width="5.2" height="5.2"/>
	<rect id="rect4297-9-3-1-85-2-7-6-7" x="208.7" y="67.2" class="st0" width="5.2" height="5.2"/>
	<rect id="rect4297-9-3-1-85-2-1-6" x="262.4" y="30.7" class="st0" width="5.2" height="5.2"/>
	<path id="path3016-1-5-1" inkscape:connector-curvature="0" class="st0" d="M125.3,130.7c-1.7,12.8-2,30.1,3.2,49.2
		c8.9,32.8,13.9,44.6,26,71.6c17.8,39.7,44.1,81.6,45.5,83.9c1.4-2.3,27.8-44.1,45.5-83.9c12.1-27.1,17-38.8,26-71.6
		c1.5-5.4,2.5-10.8,3.2-15.9h-23.7v14.5H226v-18.5h-28.3v24.7h-24.5v-24.7v-14.2h-27.4v-15.1C145.8,130.7,125.3,130.7,125.3,130.7z"
		/>
	<g>
		<path id="path3015-7" inkscape:connector-curvature="0" class="st1" d="M258.9,289.5l-0.1,11.3c30.4,4.9,47.4,15.8,47.4,25.8
			c0,15.3-47.5,27.7-106.1,27.7S93.9,342,93.9,326.7c0-10,6.1-19.8,36.3-24.7l10.6-12.4C104.5,297,80,310.8,80,326.7
			c0,23.5,53.7,42.6,120,42.6s120-19.1,120-42.6C320,310.7,295.4,296.8,258.9,289.5z"/>
		<path id="path3015-7-0-9" inkscape:connector-curvature="0" class="st2" d="M258.7,289.5c4.1,0.8,8.1,1.7,11.9,2.7
			c21.5,6.6,35.8,19,35.8,33.4c0,0.5-0.1,1-0.1,1l-0.2,0.6c0-0.2,0-0.4,0-0.6c0-10-20.3-18.7-50.8-23.6
			C255.3,303,258.7,289.5,258.7,289.5z"/>
		<path id="path3015-7-0-9_1_" inkscape:connector-curvature="0" class="st2" d="M144.7,303c-30.5,4.9-50.8,13.6-50.8,23.6
			c0,0.2,0,0.4,0,0.6l-0.2-0.6c0,0-0.1-0.5-0.1-1c0-14.3,14.4-26.8,35.8-33.4c3.8-1,7.8-1.9,11.9-2.7
			C141.3,289.5,144.7,303,144.7,303z"/>
	</g>
</g>
</svg>
