<svg id="Layer_1" data-name="Layer 1" xmlns="http://www.w3.org/2000/svg" viewBox="0 0 660 200"><defs><style>.cls-1{fill:#005ca9;}.cls-2{fill:#8c8c8c;}.cls-3{fill:#4c4c4c;}.cls-4{isolation:isolate;}</style></defs><title>insitu_logo_text</title><g id="Logo"><rect id="rect4297-9-3-1-48-1" class="cls-1" x="87.55" y="69.9" width="8.7" height="8.7"/><rect id="rect4297-9-3-1-45-7" class="cls-1" x="99.85" y="53.1" width="7.4" height="7.4"/><rect id="rect4297-9-3-1-5-4" class="cls-1" x="108.95" y="50.5" width="6.2" height="6.2"/><rect id="rect4297-9-3-1-1-0" class="cls-1" x="101.85" y="34.8" width="6.2" height="6.2"/><rect id="rect4297-9-3-1-71-9" class="cls-1" x="80.75" y="56.9" width="7.4" height="7.4"/><rect id="rect4297-9-3-1-15-4" class="cls-1" x="81.45" y="39.5" width="6.2" height="6.2"/><rect id="rect4297-9-3-1-27-8" class="cls-1" x="60.65" y="48.3" width="7.4" height="7.4"/><rect id="rect4297-9-3-1-14-8" class="cls-1" x="53.35" y="57.1" width="8.7" height="8.7"/><rect id="rect4297-9-3-1-22-2" class="cls-1" x="91.05" y="60.4" width="7.4" height="7.4"/><rect id="rect4297-9-3-1-16-4" class="cls-1" x="91.05" y="40.8" width="6.2" height="6.2"/><rect id="rect4297-9-3-1-85-5" class="cls-1" x="112.45" y="23.5" width="3.7" height="3.7"/><rect id="rect4297-9-3-1-45-1-5" class="cls-1" x="90.45" y="50.8" width="6.2" height="6.2"/><rect id="rect4297-9-3-1-15-2-1" class="cls-1" x="70.75" y="41.4" width="6.2" height="6.2"/><rect id="rect4297-9-3-1-15-34-7" class="cls-1" x="99.75" y="43.9" width="6.2" height="6.2"/><rect id="rect4297-9-3-1-15-1-1" class="cls-1" x="108.55" y="42.6" width="6.2" height="6.2"/><rect id="rect4297-9-3-1-85-1-1" class="cls-1" x="109.75" y="34.2" width="5" height="5"/><rect id="rect4297-9-3-1-85-3-5" class="cls-1" x="105.25" y="29.1" width="3.7" height="3.7"/><rect id="rect4297-9-3-1-85-8-2" class="cls-1" x="111.35" y="28.9" width="3.7" height="3.7"/><rect id="rect4297-9-3-1-85-7-7" class="cls-1" x="94.55" y="34.6" width="5" height="5"/><rect id="rect4297-9-3-1-9-4-6" class="cls-1" x="64.35" y="60.6" width="8.7" height="8.7"/><rect id="rect4297-9-3-1-2-8-1" class="cls-1" x="74.55" y="78.6" width="8.7" height="8.7"/><rect id="rect4297-9-3-1-4" class="cls-1" x="110.85" y="60.5" width="7.4" height="7.4"/><rect id="rect4297-9-3-1-9-2" class="cls-1" x="112.15" y="72.1" width="8.7" height="8.7"/><rect id="rect4297-9-3-1-6-3" class="cls-1" x="99.45" y="76" width="9.3" height="9.3"/><rect id="rect4297-9-3-1-8-2" class="cls-1" x="101.35" y="64.7" width="7.4" height="7.4"/><rect id="rect4297-9-3-1-15-3-1-2" class="cls-1" x="81.25" y="48.6" width="6.2" height="6.2"/><rect id="rect4297-9-3-1-9-4-1-1" class="cls-1" x="75.55" y="65.9" width="8.7" height="8.7"/><rect id="rect4297-9-3-1-27-5-6" class="cls-1" x="70.95" y="51.4" width="7.4" height="7.4"/><rect id="rect4297-9-3-1-85-2-8" class="cls-1" x="108.05" y="25.2" width="2.5" height="2.5"/><rect id="rect4297-9-3-1-85-2-7-5" class="cls-1" x="101.25" y="31.6" width="2.5" height="2.5"/><rect id="rect4297-9-3-1-85-2-7-6-7" class="cls-1" x="89.95" y="37.3" width="2.5" height="2.5"/><rect id="rect4297-9-3-1-85-2-1-6" class="cls-1" x="115.35" y="20" width="2.5" height="2.5"/><path id="path3016-1-5-1" class="cls-1" d="M50.55,67.3a59.9,59.9,0,0,0,1.5,23.2c4.2,15.5,6.6,21.1,12.3,33.8a353.71,353.71,0,0,0,21.5,39.6c.7-1.1,13.1-20.9,21.5-39.6,5.7-12.8,8.1-18.3,12.3-33.8a54.7,54.7,0,0,0,1.5-7.5h-11.3v6.9H98.15V81.2H84.75V92.9H73.15V74.4H60.25V67.3Z"/><path id="path3015-7" class="cls-2" d="M113.65,142.3v5.4c14.4,2.3,22.4,7.5,22.4,12.2,0,7.2-22.5,13.1-50.1,13.1s-50.1-5.9-50.1-13.1c0-4.7,2.9-9.4,17.1-11.7l5-5.8c-17.1,3.5-28.7,10-28.7,17.5C29.25,171,54.65,180,86,180s56.7-9,56.7-20.1C142.55,152.3,130.85,145.8,113.65,142.3Z"/><path id="path3015-7-0-9" class="cls-3" d="M113.55,142.3c1.9.4,3.8.8,5.6,1.3,10.1,3.1,16.9,9,16.9,15.8a1.24,1.24,0,0,1-.1.5l-.1.3v-.3c0-4.7-9.6-8.8-24-11.1C112,148.7,113.55,142.3,113.55,142.3Z"/><path id="path3015-7-0-9-2" class="cls-3" d="M59.75,148.7c-14.4,2.3-24,6.4-24,11.1v.3l-.1-.3a1.24,1.24,0,0,1-.1-.5c0-6.8,6.8-12.6,16.9-15.8,1.8-.5,3.7-.9,5.6-1.3C58.05,142.3,59.75,148.7,59.75,148.7Z"/></g><g class="cls-4"><path class="cls-3" d="M180.05,166.14V63.06h20.81V166.14Z"/><path class="cls-3" d="M220.9,166.14V63.06h20.25l42.18,68.84V63.06h19.34V166.14H281.79L240.23,98.92v67.22Z"/><path class="cls-3" d="M319.4,132.6l20.25-2q1.83,10.2,7.42,15t15.08,4.78q10.07,0,15.16-4.25t5.09-9.95a9.41,9.41,0,0,0-2.14-6.23q-2.14-2.57-7.49-4.46-3.66-1.26-16.66-4.5-16.74-4.16-23.49-10.2-9.48-8.51-9.49-20.74a26.47,26.47,0,0,1,4.47-14.73,27.9,27.9,0,0,1,12.86-10.44q8.4-3.59,20.29-3.59,19.41,0,29.21,8.51t10.3,22.71l-20.81.92q-1.33-7.95-5.73-11.43t-13.18-3.48q-9.07,0-14.21,3.73a7.5,7.5,0,0,0-3.3,6.4,7.91,7.91,0,0,0,3.09,6.25q3.94,3.32,19.13,6.89t22.46,7.42A29,29,0,0,1,399.1,119.7q4.13,6.64,4.12,16.42a30.38,30.38,0,0,1-4.92,16.59,29.56,29.56,0,0,1-13.93,11.5q-9,3.75-22.43,3.76-19.54,0-30-9T319.4,132.6Z"/><path class="cls-3" d="M420.09,166.14V63.06H440.9V166.14Z"/><path class="cls-3" d="M483.94,166.14V80.5H453.35V63.06h81.91V80.5H504.75v85.64Z"/><path class="cls-3" d="M548.55,63.06h20.82v55.83q0,13.29.77,17.23a16.73,16.73,0,0,0,6.36,10.16q5,3.83,13.75,3.83t13.36-3.62a14.32,14.32,0,0,0,5.41-8.9q.91-5.26.92-17.5v-57h20.81V117.2q0,18.57-1.69,26.23a29,29,0,0,1-6.22,12.94,31.61,31.61,0,0,1-12.13,8.4q-7.59,3.12-19.83,3.13-14.76,0-22.39-3.41a32.07,32.07,0,0,1-12.06-8.86,28.44,28.44,0,0,1-5.84-11.43q-2-8.85-2-26.15Z"/></g></svg>